# xmcd
#
# Track frame offsets: 
#        150
#        12904
#        26384
#        37901
#        46133
#        57104
#        66541
#        75536
#        88751
#        98884
#        108023
#        117408
#        128454
#        139982
#        153137
#        163758
#        174587
#        187052
#        197157
#        209409
#        218657
#        230652
#        240819
#        252178
#        264483
#        273893
#        287337
#        301017
#        312311
#        323867
#
# Disc length: 4451 seconds
#
# Revision: 2
# Processed by: cddbd v1.5.2PL0 Copyright (c) Steve Scherf et al.
# Submitted via: ExactAudioCopy v0.99pb5
#
DISCID=9211611e
DTITLE=Various Artist - Vampires, Cowboys, Spacemen and Spooks [CD1]
DYEAR=2007
DGENRE=Rock
TTITLE0=The Moontrekkers - Night Of The Vampire
TTITLE1=The Tornados - Ridin' The Wind
TTITLE2=The Packabeats - Theme From The Traitors
TTITLE3=The Spooks - The Spook Walks
TTITLE4=The Fabulous Flee-Rakkers - Green Jeans
TTITLE5=The Ambassadors - Surfin' John Brown
TTITLE6=Peter Jay and The Jaywalkers - Oo La La
TTITLE7=Roger LaVern and The Microns - Moon Rocket
TTITLE8=The Moontrekkers - Dance Legless, Russian
TTITLE9=The Saints - Husky Team
TTITLE10=The Outlaws - Swingin' Low
TTITLE11=The Tornados - Life On Venus (German Version)
TTITLE12=The Charles Blackwell Orchestra - Taboo
TTITLE13=The Joe Meek Orchestra - Cry My Heart
TTITLE14=The Thunderbolts - March Of The Spacemen
TTITLE15=The Moontrekkers - Hatashiai (Japanese Sword Fight)
TTITLE16=Roger LaVern and The Microns - Jackson's Jump
TTITLE17=The Ramblers - Just For Chicks
TTITLE18=The Original Checkmates - Union Pacific
TTITLE19=Sounds Incorporated - Keep Moving
TTITLE20=The Tornados - Robot
TTITLE21=Chris Williams and The Monsters - The Monster
TTITLE22=The Stonehenge Men - Pinto
TTITLE23=The Outlaws - Valley Of The Sioux
TTITLE24=The Saxons - Saxon War Cry
TTITLE25=The Tornados - Exodus (Undubbed)
TTITLE26=Chico Arnaz and His Latin American Orchestra - Yashmak
TTITLE27=Peter Jay and The Jaywalkers - Can Can 62
TTITLE28=The Joe Meek Orchestra - The Kennedy March
TTITLE29=The Tornados - Jungle Fever
EXTD=
EXTT0=
EXTT1=
EXTT2=
EXTT3=
EXTT4=
EXTT5=
EXTT6=
EXTT7=
EXTT8=
EXTT9=
EXTT10=
EXTT11=
EXTT12=
EXTT13=
EXTT14=
EXTT15=
EXTT16=
EXTT17=
EXTT18=
EXTT19=
EXTT20=
EXTT21=
EXTT22=
EXTT23=
EXTT24=
EXTT25=
EXTT26=
EXTT27=
EXTT28=
EXTT29=
PLAYORDER=
